<?xml version="1.0" encoding="utf-8"?>
<!-- Generator: Adobe Illustrator 27.0.0, SVG Export Plug-In . SVG Version: 6.00 Build 0)  -->
<svg version="1.1" id="圖層_1" xmlns="http://www.w3.org/2000/svg" xmlns:xlink="http://www.w3.org/1999/xlink" x="0px" y="0px"
	 viewBox="0 0 50 50" style="enable-background:new 0 0 50 50;" xml:space="preserve">
<style type="text/css">
	.st0{fill:#040000;}
</style>
<path class="st0" d="M42.8,15.7c-3.7-1.2-5.9,2.2-5.9,2.2c1.1-2.6-0.8-5.7-0.8-5.7s-1.9,1.3-2.6,3.7c-0.3,1,0,2.2,0.4,3
	c-0.6,0.2-1.1,0.5-1.5,0.9c-0.6,0.6-0.9,1.4-0.9,2.5c-0.8-0.1-1.5-0.1-2.1,0.3c-1,0.6-1.4,1.7-1.6,2.6c-1-0.4-1.8-0.3-2.4-0.1
	c-0.7,0.2-1.3,0.8-1.7,1.5c-1.1-0.5-2.2-0.5-3.1,0c-0.9,0.6-1.5,1.6-1.7,2.8c-1-0.7-2.1-0.9-3.1-0.6c-0.7,0.2-1.8,0.7-2.4,2.5
	c-1.5-0.6-3.1-0.1-4.1,0.9c-0.9,0.9-1.4,2.4-0.5,3.8c-1,1.2-1.5,2.7-1.3,4.1c0.2,1.4,1,2.5,2.1,3.1c0.7,0.4,1.5,0.6,2.4,0.6
	c0.7,0,1.4-0.1,2.1-0.4c1-0.4,2-1,2.8-1.8c0.7,0.2,1.4,0.3,2.1,0.3c0.2,0,0.3,0,0.5,0c1.3-0.1,2.4-0.5,3.4-1.2
	c0.9-0.7,1.5-1.6,1.7-2.6c1.1,0,2.5-0.5,3.4-1.5c0.7-0.7,1.1-1.5,1.1-2.4c1.2,0,2-0.3,2.6-0.8c0.4-0.4,0.7-1,0.8-1.8
	c0-0.3,0.1-0.5,0.1-0.8c0.1,0,0.2,0,0.2,0c0.4,0,0.7-0.1,1.1-0.2c0.8-0.3,1.5-0.8,2.1-1.4c1-1.2,1.2-2.5,0.6-3.7
	c1.7-1.6,1.2-3.5,0.8-4.6c0.9-0.1,2-0.4,2.8-0.9C43,17.9,42.8,15.7,42.8,15.7z M35.4,24.8L35,25.2l0.3,0.5c0.9,1.2,0,2.4-0.3,2.7
	c-0.8,0.9-1.8,1.3-2.6,1.2c0-0.1,0-0.2,0-0.4l-1.2,0.1c0.1,1.8,0,2.8-0.5,3.3c-0.4,0.4-1.2,0.6-2.3,0.5l-0.7-0.1l0.1,0.7
	c0.1,0.8-0.2,1.5-0.7,2.1c-0.7,0.7-1.7,1.1-2.5,1.1c0-0.4-0.1-0.9-0.2-1.3l-1.1,0.3c0.6,2.1-0.5,3.3-1.2,3.9
	c-1.2,0.9-2.8,1.2-4.3,0.9c0.2-0.2,0.4-0.4,0.5-0.7l-1-0.7c-2.1,2.9-5.2,4.2-7.2,2.9l0,0c-0.8-0.4-1.3-1.2-1.5-2.2
	c-0.2-1.2,0.3-2.5,1.3-3.5l0-0.8c-0.8-1-0.4-2,0.2-2.7c1.1-1.1,2.4-1,3.2-0.4l0.9-0.4c0.3-1.3,0.9-2.2,1.8-2.4
	c0.9-0.2,2.1,0.2,2.9,1.1l1-0.4c-0.1-1.3,0.4-2.5,1.2-3c0.7-0.4,1.6-0.3,2.5,0.3l0.9-0.3c0.3-0.7,0.8-1.2,1.3-1.4
	c0.6-0.2,1.3-0.1,2.1,0.4l0.9-0.4c0-0.1,0.1-0.2,0.1-0.4c0.2-0.9,0.5-1.9,1.2-2.3c0.4-0.2,1.1-0.2,2,0l0.8-0.6
	c-0.1-2,0.7-2.7,1.5-2.9c0,0,0,0,0,0s0.1,0,0.2-0.1c0.1,0,0.1,0,0.2-0.1c0.3,0,0.6-0.1,0.9,0c0.5,0.2,0.7,0.6,0.8,0.8
	c0,0.1,0.1,0.2,0.1,0.3C36.6,22.3,37,23.6,35.4,24.8z"/>
</svg>
