<?xml version="1.0" encoding="utf-8"?>
<!-- Generator: Adobe Illustrator 27.0.0, SVG Export Plug-In . SVG Version: 6.00 Build 0)  -->
<svg version="1.1" id="圖層_1" xmlns="http://www.w3.org/2000/svg" xmlns:xlink="http://www.w3.org/1999/xlink" x="0px" y="0px"
	 viewBox="0 0 50 50" style="enable-background:new 0 0 50 50;" xml:space="preserve">
<style type="text/css">
	.st0{fill:#040000;}
</style>
<g>
	<path class="st0" d="M38.3,26.6L38.3,26.6c0,2.5-1,6.5-3.4,9.2c-1.6,1.8-2.8,2.5-3.7,3c-0.1,0-0.1,0.1-0.2,0.1
		c-0.2,0.1-0.4,0.4-0.4,0.6c0,0.1,0,0.5,0,0.7c0,0.6-0.4,1.4-2.1,2c-1.2,0.4-2.7,0.7-4.2,0.7c-1.6,0-3.1-0.2-4.2-0.7
		c-1.7-0.6-2.1-1.5-2.1-2c0-0.2,0-0.6,0-0.7c0-0.3-0.1-0.5-0.4-0.6c-0.1,0-0.1-0.1-0.2-0.1c-0.9-0.5-2.1-1.2-3.7-3
		c-2.5-2.7-3.4-6.7-3.4-9.2h0c0,0,0,0,0,0c0-0.5,0.4-1,1.3-1.4c0.3-0.2,0.7-0.3,1.1-0.5v1.3c-0.3,0.2-0.5,0.4-0.5,0.6
		c0,1.1,5,2.4,12.1,2.4c7.1,0,12.1-1.3,12.1-2.4c0-1.1-5-2.4-12.1-2.4c-1.2,0-2.4,0-3.5,0.1v-1c1.1-0.1,2.3-0.1,3.5-0.1
		c3.7,0,7.1,0.3,9.7,0.9c1.3,0.3,2.3,0.6,3.1,1C37.9,25.6,38.3,26.1,38.3,26.6C38.3,26.6,38.3,26.6,38.3,26.6z M12.6,15.7h-2v1.4
		l2,0V15.7z M12.6,13.6l-2,0v1.4h2V13.6z M20.8,13.5v1.6h19v-2L20.8,13.5z M20.8,17.3l19,0.4v-2h-19V17.3z M18.5,12
		c-0.4,0-0.7,0.1-0.9,0.4c-0.2-0.2-0.5-0.4-0.9-0.4c-0.4,0-0.7,0.1-0.9,0.4c-0.2-0.2-0.5-0.4-0.9-0.4c-0.7,0-1.2,0.6-1.2,1.2v13.6
		c0.2,0.1,0.4,0.1,0.7,0.2V13.2c0-0.3,0.3-0.6,0.6-0.6c0.3,0,0.6,0.3,0.6,0.6V27v0.4c0.2,0,0.4,0.1,0.7,0.1V27V13.2
		c0-0.3,0.3-0.6,0.6-0.6c0.3,0,0.6,0.3,0.6,0.6v14.4c0.2,0,0.4,0.1,0.7,0.1v-0.1V13.2c0-0.3,0.3-0.6,0.6-0.6c0.3,0,0.6,0.3,0.6,0.6
		v14.6c0.2,0,0.4,0,0.7,0.1V13.2C19.7,12.6,19.2,12,18.5,12z"/>
</g>
</svg>
