<?xml version="1.0" encoding="utf-8"?>
<!-- Generator: Adobe Illustrator 27.0.0, SVG Export Plug-In . SVG Version: 6.00 Build 0)  -->
<svg version="1.1" id="圖層_1" xmlns="http://www.w3.org/2000/svg" xmlns:xlink="http://www.w3.org/1999/xlink" x="0px" y="0px"
	 viewBox="0 0 50 50" style="enable-background:new 0 0 50 50;" xml:space="preserve">
<style type="text/css">
	.st0{fill:none;}
	.st1{fill:#040000;}
</style>
<g>
	<path class="st0" d="M29.6,26.4c-0.7,0.2-1.4,0.4-2.2,0.6c-3,0.9-5,1.3-6.8,1.5c-0.7,0.1-1.3,0.1-1.8,0.1c-0.7,0-1.4-0.1-2-0.2
		c-0.4,0.3-0.7,0.6-1.1,0.9c-0.5,0.4-1.9,1.8-3.3,3.5c-1.5,1.9-2,2.9-2.1,3.3c0.4,0.3,1.2,0.8,2.8,1.6c1.4,0.7,2.9,1.4,3.8,1.7
		c0.5-0.5,0.9-1,1.5-1.7c0.7-0.9,1.6-2.1,3.1-3.5c1.2-1.1,2.7-2.3,4.5-3.3c1.8-1.1,3.7-1.9,6-2.5l0.3-0.1c1.8-0.5,3.2-0.9,5.3-0.9
		c1.2,0,2.5,0.1,4.2,0.4c1.6,0.3,2.8,0.9,3.6,1.4c0.1,0,0.2,0.1,0.3,0.2c0.1-0.1,0.2-0.2,0.3-0.3c-0.2-0.2-0.4-0.4-0.7-0.7
		c-0.6-0.6-1.5-1.2-2.3-1.8c-1.4-0.9-2.5-1.6-3.8-2.1c-0.9-0.3-1.9-0.6-3.2-0.8C34.8,25,32.4,25.7,29.6,26.4z"/>
	<path class="st0" d="M29.2,24.9c1.8-0.5,3.5-0.9,4.7-1.5c-1.2-0.1-2.3-0.2-3.3-0.2c-2.5,0-4.7,0.4-6.9,1.2c-1.6,0.6-3.2,1.5-5,2.7
		c2.1,0,4.8-0.6,8.3-1.6C27.8,25.3,28.5,25.1,29.2,24.9z"/>
	<path class="st0" d="M11.7,24.5c0.7-0.9,1.6-2.1,3.1-3.5c1.2-1.1,2.7-2.3,4.5-3.3c1.8-1.1,3.7-1.9,6-2.5l0.3-0.1
		c1.8-0.5,3.2-0.9,5.3-0.9c1.2,0,2.5,0.1,4.2,0.4c1.6,0.3,2.8,0.9,3.6,1.4c0.1,0,0.2,0.1,0.3,0.2c0.1-0.1,0.2-0.2,0.3-0.3
		c-0.2-0.2-0.4-0.4-0.7-0.7c-0.6-0.6-1.5-1.2-2.3-1.8c-1.4-0.9-2.5-1.6-3.8-2.1c-1.3-0.5-3-0.8-5.2-1.1C26.1,10,25,9.9,23.9,9.9
		c-2.5,0-4.7,0.4-6.9,1.2c-2.5,1-5,2.5-7.9,4.9c-0.5,0.4-1.9,1.8-3.3,3.5c-1.5,1.9-2,2.9-2.1,3.3c0.4,0.3,1.2,0.8,2.8,1.6
		c1.4,0.7,2.9,1.4,3.8,1.7C10.8,25.7,11.2,25.1,11.7,24.5z"/>
	<path class="st1" d="M37.8,18.9c-0.2-0.1-0.4-0.2-0.6-0.3c-0.4-0.2-0.7-0.4-1.2-0.6c0.3,0.7,0.4,2-0.5,3.7c0.6,0.1,1.1,0.2,1.6,0.3
		C37.7,20.8,37.9,19.7,37.8,18.9z"/>
	<path class="st1" d="M14.7,25.7c-0.2,0.2-0.3,0.4-0.5,0.6c-0.1,0.2-0.3,0.4-0.4,0.6c0.4,0.3,0.8,0.5,1.2,0.8c0.5-0.4,0.9-0.7,1.4-1
		C15.6,26.3,15.1,26,14.7,25.7z"/>
	<path class="st1" d="M10.3,28c0.4,0,0.8-0.1,1-0.3c1.7-1.5,2.2-3.1,4.7-5.3c2.7-2.4,5.2-4.2,9.7-5.5c1.9-0.5,3.2-0.9,5.1-0.9
		c1,0,2.3,0.1,3.9,0.4c2.3,0.4,3.5,1.7,4.4,1.7c0.2,0,0.4-0.1,0.6-0.3c0.6-0.5,1.7-1.5,1.6-2c-0.2-0.8-1.9-2.6-4-4
		c-3-2-4.9-2.9-9.9-3.4c-1.2-0.1-2.5-0.2-3.6-0.2c-5.1,0-9.7,1.5-16,6.5c-1.5,1.2-7.5,7.6-5.9,9.3c1.3,1.3,5.8,3.3,7.6,4
		C9.8,28,10.1,28,10.3,28z M3.7,22.8c0.2-0.4,0.6-1.5,2.1-3.3c1.3-1.6,2.7-3,3.3-3.5c2.9-2.3,5.4-3.9,7.9-4.9
		c2.2-0.8,4.4-1.2,6.9-1.2c1,0,2.2,0.1,3.4,0.2c2.3,0.2,3.9,0.6,5.2,1.1c1.3,0.5,2.4,1.2,3.8,2.1c0.8,0.6,1.7,1.2,2.3,1.8
		c0.3,0.3,0.5,0.5,0.7,0.7c-0.1,0.1-0.2,0.2-0.3,0.3c-0.1-0.1-0.2-0.1-0.3-0.2c-0.8-0.4-2-1.1-3.6-1.4c-1.7-0.3-3.1-0.4-4.2-0.4
		c-2.1,0-3.5,0.4-5.3,0.9l-0.3,0.1c-2.3,0.6-4.2,1.5-6,2.5c-1.8,1.1-3.3,2.3-4.5,3.3c-1.5,1.4-2.4,2.5-3.1,3.5
		c-0.5,0.7-0.9,1.2-1.5,1.7c-0.8-0.3-2.3-1-3.8-1.7C4.9,23.7,4.1,23.1,3.7,22.8z"/>
	<path class="st1" d="M44,31.8c-0.4-0.2-0.7-0.4-1.2-0.6c0.3,0.8,0.5,2.3-0.9,4.3c-0.8,1.2-3.3,1.9-6,2.6c-0.7,0.2-1.5,0.4-2.2,0.6
		c-4.8,1.4-8.2,2.1-10.5,1.2c-0.8-0.3-1.4-0.7-1.9-1.1c-0.2,0.2-0.3,0.4-0.5,0.6c-0.1,0.2-0.3,0.4-0.4,0.6c0.6,0.5,1.4,0.9,2.3,1.3
		c0.8,0.3,1.8,0.5,2.9,0.5c0.6,0,1.2,0,1.8-0.1c1.7-0.2,3.8-0.7,6.8-1.5c0.7-0.2,1.5-0.4,2.2-0.6c3.1-0.8,5.8-1.6,6.9-3.3
		c1.1-1.7,1.4-3.1,1.3-4.3C44.4,32,44.2,31.9,44,31.8z"/>
	<path class="st1" d="M44.1,25c-2.3-1.6-4-2.5-7-3c-0.2,0.4-0.4,0.8-0.6,1.2c-0.1,0.2-0.3,0.4-0.4,0.5c1.3,0.2,2.3,0.5,3.2,0.8
		c1.3,0.5,2.4,1.2,3.8,2.1c0.8,0.6,1.7,1.2,2.3,1.8c0.3,0.3,0.5,0.5,0.7,0.7c-0.1,0.1-0.2,0.2-0.3,0.3c-0.1-0.1-0.2-0.1-0.3-0.2
		c-0.8-0.4-2-1.1-3.6-1.4c-1.7-0.3-3.1-0.4-4.2-0.4c-2.1,0-3.5,0.4-5.3,0.9L32,28.4c-2.3,0.6-4.2,1.5-6,2.5
		c-1.8,1.1-3.3,2.3-4.5,3.3c-1.5,1.4-2.4,2.5-3.1,3.5c-0.5,0.7-0.9,1.2-1.5,1.7c-0.8-0.3-2.3-1-3.8-1.7c-1.6-0.8-2.4-1.3-2.8-1.6
		c0.2-0.4,0.6-1.5,2.1-3.3c1.3-1.6,2.7-3,3.3-3.5c0.4-0.3,0.7-0.6,1.1-0.9c-0.3-0.1-0.6-0.2-0.9-0.3c-0.4-0.1-0.7-0.3-1.1-0.5
		c-0.1,0.1-0.2,0.1-0.2,0.2c-1.5,1.2-7.5,7.6-5.9,9.3c1.3,1.3,5.8,3.3,7.6,4c0.2,0.1,0.5,0.1,0.7,0.1c0.4,0,0.8-0.1,1-0.3
		c1.7-1.5,2.2-3.1,4.7-5.3c2.7-2.4,5.2-4.2,9.7-5.5c1.9-0.5,3.2-0.9,5.1-0.9c1,0,2.3,0.1,3.9,0.4c2.3,0.4,3.5,1.7,4.4,1.7
		c0.2,0,0.4-0.1,0.6-0.3c0.6-0.5,1.7-1.5,1.6-2C48,28.2,46.3,26.4,44.1,25z"/>
	<path class="st1" d="M18.8,27.1c1.7-1.2,3.4-2.1,5-2.7c2.2-0.8,4.4-1.2,6.9-1.2c1,0,2.1,0.1,3.3,0.2c0.6-0.3,1.1-0.7,1.4-1.1
		c0.1-0.2,0.2-0.4,0.3-0.6c-0.4-0.1-0.9-0.1-1.3-0.2c-1.2-0.1-2.5-0.2-3.6-0.2c-4.7,0-8.9,1.2-14.4,5.3c0.1,0,0.2,0.1,0.3,0.1
		C17.2,27,17.9,27.1,18.8,27.1z"/>
	<path class="st1" d="M33.9,23.4c0.1,0,0.1,0,0.2,0c0.8,0.1,1.4,0.2,2.1,0.3c0.2-0.2,0.3-0.3,0.4-0.5c0.3-0.4,0.5-0.8,0.6-1.2
		c-0.5-0.1-1-0.2-1.6-0.3c-0.1,0.2-0.2,0.4-0.3,0.6C35,22.7,34.5,23.1,33.9,23.4z"/>
	<path class="st1" d="M16.9,28.4c0.6-0.5,1.2-0.9,1.9-1.3c-0.8,0-1.6-0.1-2.2-0.4c-0.1,0-0.2-0.1-0.3-0.1c-0.4,0.3-0.9,0.7-1.4,1
		c0.3,0.2,0.7,0.4,1.1,0.5C16.3,28.3,16.6,28.4,16.9,28.4z"/>
</g>
</svg>
