<?xml version="1.0" encoding="utf-8"?>
<!-- Generator: Adobe Illustrator 27.0.0, SVG Export Plug-In . SVG Version: 6.00 Build 0)  -->
<svg version="1.1" id="圖層_1" xmlns="http://www.w3.org/2000/svg" xmlns:xlink="http://www.w3.org/1999/xlink" x="0px" y="0px"
	 viewBox="0 0 50 50" style="enable-background:new 0 0 50 50;" xml:space="preserve">
<style type="text/css">
	.st0{fill:#040000;}
</style>
<g>
	<path class="st0" d="M38.7,27.1L38.7,27.1C38.7,27.1,38.7,27.1,38.7,27.1c0-0.8-0.4-1.6-1.2-2.3c-0.7-0.6-1.7-1.2-3-1.6
		C34.3,23.1,34.2,23,34,23c0.6,0.7,0.9,1.4,1,1.4c0,0.1,0.1,0.2,0.1,0.2c1.6,0.7,2.5,1.6,2.5,2.4c0,0,0,0,0,0c0,0,0,0,0,0
		c0,2-5.2,4.2-12.5,4.2c-2.1,0-4.1-0.2-5.8-0.5c0,0,0,0,0,0l-2.5-0.6c-2.7-0.8-4.2-2-4.2-3.1c0,0,0,0,0,0c0,0,0,0,0,0
		c0-0.9,1.1-1.8,2.9-2.6c0.1-0.3,0.2-0.6,0.3-0.9l0-0.1c0.1-0.2,0.1-0.3,0.2-0.5c-0.2,0.1-0.3,0.1-0.5,0.2c-1.3,0.5-2.3,1-3,1.6
		c-0.8,0.7-1.2,1.5-1.2,2.3c0,0,0,0,0,0h0c0,0,0,0,0,0c0,0,0,0.1,0,0.1c0.1,2.5,1,6.3,3.3,8.9c1.6,1.8,2.8,2.4,3.6,2.9
		c0.1,0,0.1,0.1,0.2,0.1c0.2,0.1,0.4,0.4,0.4,0.6c0,0.1,0,0.5,0,0.7c0,0.6,0.4,1.4,2,2C22,42.8,23.4,43,25,43c0,0,0,0,0,0
		c0,0,0,0,0,0c0,0,0,0,0,0c1.5,0,3-0.2,4.1-0.7c1.7-0.6,2-1.4,2-2c0-0.2,0-0.6,0-0.7c0-0.3,0.1-0.5,0.4-0.6c0,0,0,0,0,0
		c0.2-0.1,0.3-0.2,0.5-0.3c0.3-0.2,0.6-0.4,1-0.6c0,0,0,0,0,0l0,0c0.6-0.5,1.4-1.1,2.3-2.1C37.7,33.4,38.7,29.7,38.7,27.1
		C38.7,27.1,38.7,27.1,38.7,27.1C38.7,27.1,38.7,27.1,38.7,27.1z M29,35.3c0,0.1-0.1,0.2-0.1,0.3c0,0.1-0.1,0.2-0.1,0.3
		c-0.1,0.2-0.2,0.4-0.3,0.5c-0.2,0.4-0.4,0.7-0.7,1.1c-0.2,0.4-0.5,0.7-0.8,1.1c-0.2,0.2-0.4,0.5-0.6,0.7c0.1-0.4,0.2-0.9,0.3-1.3
		c0.1-0.6,0.2-1.1,0.3-1.7c0.2-1.3,0.4-2.6,0.5-4c1-0.1,2-0.2,2.9-0.3c-0.1,0.4-0.3,0.7-0.4,1.1C29.7,33.8,29.4,34.5,29,35.3z
		 M22.5,32.3c0.1,1.3,0.2,2.6,0.5,4c0.1,0.6,0.2,1.1,0.3,1.7c0.1,0.4,0.2,0.9,0.3,1.3c-0.2-0.3-0.4-0.5-0.6-0.8
		c-0.3-0.4-0.5-0.7-0.8-1.1c-0.2-0.4-0.5-0.7-0.7-1.1c-0.1-0.2-0.2-0.4-0.3-0.5c0-0.1-0.1-0.2-0.1-0.3c0-0.1-0.1-0.2-0.1-0.3
		c-0.4-0.7-0.7-1.5-1-2.2c-0.1-0.3-0.3-0.7-0.4-1C20.6,32.2,21.5,32.3,22.5,32.3z M15.5,35.3c-1-1.1-1.8-2.5-2.3-4.2
		c-0.2-0.5-0.3-1-0.4-1.5c0.6,0.4,1.3,0.8,2.2,1.2c0.1,0.4,0.2,0.8,0.3,1.2c0.3,1,0.7,1.9,1.2,2.8c0.5,0.9,1.2,1.7,1.9,2.5
		c0.6,0.5,1.2,1,1.8,1.4c-1.1-0.5-2-1-2.6-1.4l0,0C17,36.8,16.3,36.2,15.5,35.3z M34.5,35.3c-0.9,0.9-1.6,1.5-2.2,2
		c-0.6,0.4-1.3,0.8-2.3,1.2c0.6-0.4,1.1-0.8,1.6-1.2c0.8-0.7,1.4-1.6,1.9-2.5c0.5-0.9,0.9-1.8,1.2-2.8c0.1-0.4,0.2-0.8,0.3-1.2
		c0.9-0.4,1.6-0.8,2.2-1.2c-0.1,0.5-0.2,1-0.4,1.5C36.3,32.8,35.5,34.2,34.5,35.3z"/>
	<path class="st0" d="M18.4,29.5c1.5,0.1,3.3,0.2,4.6-0.4c0.1-0.1,0.3-0.1,0.4-0.2c0.2,0.1,0.3,0.2,0.5,0.4c1.3,0.9,2.5,1.3,4,0.9
		c1-0.3,1.5-0.8,2.2-1.2c0.2-0.1,0.4-0.2,0.7-0.2c0.3-0.1,0.6-0.1,1,0c3.1,0.6,4.4-0.7,4.5-1.6c0.1-0.9-1.6-2-2.2-2.3
		c0,0-0.8-1.8-2.6-2.6c-1.3-0.5-2.6-0.6-3.8-0.6C27,21.3,26.2,21,25.5,21c-0.8,0-2,0.5-3.2,1.2c-0.9-0.2-1.7-0.4-2.1-0.5
		c-0.7-0.1-1.2,0.1-1.7,0.3c-0.8,0.3-1.5,1.1-1.8,1.9c-0.2,0.4-0.3,0.8-0.4,1.1l0,0C10,27.7,16.8,29.4,18.4,29.5z M31.8,24
		c1.3,0.8,1.9,2.2,1.5,3.8c0,0-1-3.2-5.5-4.5C27.8,23.3,30.1,22.9,31.8,24z M30.1,27.1c0,0-2.1,1.4-4.1,1.2
		c-1.5-0.2-2.5-1.4-2.7-3.1C23.3,25.2,25.5,27.7,30.1,27.1z M19.1,24c1.7-1.2,4-0.9,4-0.9c-4.4,1.5-5.3,4.8-5.3,4.8
		C17.3,26.3,17.9,24.9,19.1,24z"/>
</g>
</svg>
