<?xml version="1.0" encoding="utf-8"?>
<!-- Generator: Adobe Illustrator 27.0.0, SVG Export Plug-In . SVG Version: 6.00 Build 0)  -->
<svg version="1.1" id="圖層_1" xmlns="http://www.w3.org/2000/svg" xmlns:xlink="http://www.w3.org/1999/xlink" x="0px" y="0px"
	 viewBox="0 0 50 50" style="enable-background:new 0 0 50 50;" xml:space="preserve">
<style type="text/css">
	.st0{fill:#040000;}
</style>
<path class="st0" d="M36.7,19.7c-0.2-0.7-0.9-1-1.3-1.3c-0.1,0-0.2-0.1-0.3-0.2c-0.1-0.3-0.5-0.9-1-1.4c-0.4-0.4-0.8-0.7-1.2-0.9
	l1.9-3c0.2-0.4,0.1-0.9-0.3-1.2c-0.4-0.2-0.9-0.1-1.2,0.3l-2.1,3.5c0,0-0.1,0-0.1,0c-1-1.1-2-1.6-3-1.7c-0.7,0-1.4,0.2-2,0.7
	c-0.3-0.1-0.7-0.2-1.1-0.1c-0.4,0.1-0.9,0.3-1.2,1c-0.6,1.1-0.7,2-0.8,2.4c-0.5,0.6-0.7,1.1-0.6,1.7c-0.3-0.1-0.5-0.2-0.8-0.2h0h0
	c-0.6,0-1.1,0.3-1.4,0.8l-2.3,3.7c-0.5,0.8-0.3,1.8,0.5,2.3l0.9,0.5c-0.1,0-0.2,0-0.3,0c-0.4-0.2-1-0.3-1.7-0.1
	c-0.9,0.2-1.5,0.8-1.7,1.4c0,0,0,0,0,0l-0.9,3.4c0,0.1-0.1,0.3-0.1,0.4l0,0.1c-0.1,0.4-0.2,1.2,0.8,1.7c0.6,0.4,1.2,0.8,1.6,1.4
	c0.4,0.5,0.9,0.9,1.4,1.1l-4.7,7.7c-0.2,0.4-0.1,0.9,0.3,1.2c0.1,0.1,0.3,0.1,0.4,0.1c0.3,0,0.6-0.1,0.7-0.4l4.9-7.9
	c0.8,0.3,1.5,0.8,2,1.3c0.6,0.6,1.2,0.9,1.7,1.1c0.2,0.1,0.4,0.1,0.6,0.1c0.5,0,1-0.2,1.5-0.6c0.1-0.1,0.2-0.2,0.3-0.2
	c0.4-0.3,1.3-1.2,1.8-2.4c0.2-0.6,0.4-1.1,0.5-1.7c0.1-0.4,0.2-0.9,0.4-1.3c0.1-0.2,0.1-0.3,0.1-0.5c0.3,0.2,0.6,0.2,0.9,0.2
	c0.6,0,1.1-0.3,1.4-0.8l2.3-3.7c0.5-0.8,0.3-1.8-0.5-2.3l-1.4-0.9c0.5,0.2,1.2,0.3,1.8,0.3c0.3,0,0.5,0,0.7-0.1
	c0.9-0.2,1.2-0.6,1.4-1c0,0,0,0,0,0l1.3-3.6C36.8,20.3,36.7,20,36.7,19.7z M32.3,27.7l-2.3,3.7c-0.1,0.1-0.2,0.2-0.4,0.2
	c-0.1,0-0.2,0-0.3-0.1l-10.3-6.5c-0.2-0.1-0.3-0.4-0.2-0.7l2.3-3.7c0.1-0.1,0.2-0.2,0.4-0.2c0.1,0,0.2,0,0.3,0.1L32.1,27
	C32.3,27.2,32.4,27.5,32.3,27.7z"/>
</svg>
