<?xml version="1.0" encoding="utf-8"?>
<!-- Generator: Adobe Illustrator 27.0.0, SVG Export Plug-In . SVG Version: 6.00 Build 0)  -->
<svg version="1.1" id="圖層_1" xmlns="http://www.w3.org/2000/svg" xmlns:xlink="http://www.w3.org/1999/xlink" x="0px" y="0px"
	 viewBox="0 0 50 50" style="enable-background:new 0 0 50 50;" xml:space="preserve">
<style type="text/css">
	.st0{fill:#040000;}
</style>
<path class="st0" d="M23.6,26.6c0.1,0,0.1,0,0.2,0C23.7,26.7,23.6,26.7,23.6,26.6L23.6,26.6z M45.3,31.7c0,0-0.8-6.1-9.9-10.4
	c-0.1-0.1-0.2-0.1-0.3-0.2c0,0,0,0,0,0c-0.1,0-0.2-0.1-0.3-0.1c0,0,0,0,0,0c-0.1,0-0.2-0.1-0.3-0.1c0,0,0,0,0,0
	c-0.1,0-0.2-0.1-0.3-0.1c0,0,0,0,0,0c-5.6-2.1-13.6-2.1-17.1-2.1c0,0-1.6,1-2,6c0.5,0,1,0,1.6,0.1c0.2-1.8,0.5-2.9,0.8-3.7
	c2.1,0,5.1,0.1,8.2,0.4c-0.4,0.7-0.8,1.3-1,1.8c-0.3,0.6-0.5,1.5-0.8,2.5c0.4,0.1,0.8,0.2,1.2,0.3c0.3-0.9,0.5-1.7,0.7-2.2
	c0.2-0.5,0.7-1.3,1.2-2.1c2,0.3,4,0.7,5.8,1.3c-0.2,0.4-0.4,0.7-0.5,1c-0.4,1-0.9,2.7-1.3,4.5c0.4,0.2,0.8,0.5,1.1,0.7
	c0.4-1.9,0.9-3.8,1.3-4.7c0.1-0.3,0.3-0.6,0.6-1c0.2,0.1,0.3,0.1,0.5,0.2h0c4.5,2.1,6.8,4.7,8,6.4c0.4,0.7,0.8,1.3,1,1.8l-0.3,0.5
	h-7.2c0.5,0.5,0.9,1,1.3,1.6c4.1,0,6.9,0,6.9,0l0.3-0.6l0,0l0.7-1.4c0,0,0,0,0,0L45.3,31.7z M15,25.7c0.5,0,1,0,1.6,0.1l0,0
	C16.1,25.7,15.5,25.7,15,25.7L15,25.7z M14.1,25.6C14.1,25.6,14.1,25.6,14.1,25.6c-1.5,0-2.8-0.1-3.8-0.1
	C11.3,25.6,12.6,25.6,14.1,25.6z M4.7,17.8c0,3.7,1.4,7,3.4,9.2c0-0.1,0.1-0.1,0.1-0.2c0.6-1.4,1.2-1.9,1.4-2l0.2-0.1h0.3
	c1,0,2.4,0,4.1,0.1c0.2-1.9,0.5-3.5,1-4.7c0.6-1.4,1.2-1.9,1.4-2l0.2-0.1h0.3c1.1,0,2.7,0,4.6,0.1c-0.5-1.6-1.2-3.2-2.3-4.7
	c-0.5,0.2-1,0.5-1.4,0.9c-0.4-1.7-1.1-3-2.3-4.6c-1.1,0.5-1.8,1.5-2.4,2.5c-0.9-1.1-2.3-2.8-3.5-3.5C9.1,9.8,9,12,9,13.4
	c-1.1-0.5-2.3-0.9-3.5-0.7c0,2,0.2,3.4,0.9,5C5.8,17.7,5.3,17.7,4.7,17.8z M38.1,38.8C38.1,38.8,38.1,38.8,38.1,38.8l-0.7,1.4l0,0
	l-0.3,0.6c0,0-6,0-13,0c-0.4,0-0.8,0-1.3,0c-2.2,0-4.4,0-6.6,0c-0.4,0-0.9,0-1.3,0c-2,0-3.9,0-5.7,0c0,0-1.3-2.7-1.3-6.7
	c0-7.2,2.1-8.6,2.1-8.6c3.5,0,11.5,0,17.1,2.1l0,0c0,0,0,0,0,0c0.1,0,0.2,0.1,0.3,0.1c0,0,0,0,0,0c0.1,0,0.2,0.1,0.3,0.1
	c0,0,0,0,0,0c0.1,0,0.2,0.1,0.3,0.1c0,0,0,0,0,0c0.1,0,0.2,0.1,0.3,0.2c9.1,4.3,9.9,10.4,9.9,10.4L38.1,38.8z M15.2,39.3
	c0.6-3,1.6-7.3,2.4-9.2c0.2-0.4,0.6-1.1,1-1.8C15.5,28,12.5,28,10.4,28c-0.4,1-0.9,2.9-0.9,6.2c0,2.3,0.5,4.1,0.8,5.1H15.2z
	 M23.1,39.3c0.6-2.8,1.4-6.7,2.1-8.4c0.1-0.3,0.3-0.6,0.5-1c-1.8-0.6-3.8-1-5.8-1.3c-0.6,0.8-1,1.6-1.2,2.1
	c-0.7,1.7-1.6,5.7-2.2,8.7H23.1z M36.4,38.7c-0.2-0.5-0.5-1.1-1-1.8c-1.2-1.8-3.5-4.3-8-6.4h0c-0.2-0.1-0.3-0.2-0.5-0.2
	c-0.2,0.4-0.4,0.8-0.6,1c-0.7,1.6-1.4,5.2-2,8h11.7L36.4,38.7z"/>
</svg>
